<svg class="my-logo" xmlns="http://www.w3.org/2000/svg" viewBox="0 0 535.91 84.92"><g id="Layer_2" data-name="Layer 2"><g id="Ebene_1" data-name="Ebene 1"><path fill="#fff" d="M135.55,29.53l-7.9,11.1,18.26,26.71V29.53ZM80.91,31.78V66l17.24-25.6L90.06,29.81a51.3,51.3,0,0,0,18.23-8.93l5.21,6.6,9.88-14.93h56.15V29.48H166.9V70.84l-43.52,0L112.24,54.22,100.67,70.86H59.72V59.48c-2.94,8-12.23,12.95-30.65,12.95C1.74,72.43.42,62.77,0,51.71H21.61c.07,3.3.63,5.7,2,7.26a7.51,7.51,0,0,0,6.06,2.39c4.39,0,9.13-1.24,9.13-6a4.45,4.45,0,0,0-.91-2.72C35,48.82,10.94,46,4.18,39,1.46,36.19.63,32,.63,28.59c0-13,10.11-18.9,30.25-18.9,21.4,0,26.47,7.49,26.74,19.79H36.82c-.14-3.3-1.13-5.88-2.58-7.08a6.39,6.39,0,0,0-4.75-1.65c-4.46.09-6.83,2-6.83,5a4.21,4.21,0,0,0,.91,2.72C26.84,32.22,50.12,34.87,56.81,42a13.56,13.56,0,0,1,2.91,4.62V32.86a111.07,111.07,0,0,0,21.19-1.08Z"></path><path fill="#ef7d00" d="M59.72,12.54C81.29,14.13,93.44,8,97.61,0h22C113,19.16,92.36,31.16,59.72,29.52v-17Z"></path><path fill="#1d1d1b" d="M109.24,76.43"></path><path fill="#ef7e06" d="M192.17,30.17h14.9l-1,6.08a17.77,17.77,0,0,1,2.54-2.5A24.89,24.89,0,0,1,212,31.42a20.48,20.48,0,0,1,4-1.75,14,14,0,0,1,4.21-.66q5.22,0,8.15,2a9.34,9.34,0,0,1,3.86,5.5Q239,29,247.71,29q6.94,0,10,3t3.08,8.85a38.94,38.94,0,0,1-.55,6L256,71H239.75l3.67-20.83a22.83,22.83,0,0,0,.47-4,4.77,4.77,0,0,0-1-3.39,4.64,4.64,0,0,0-3.43-1.05,5.54,5.54,0,0,0-4.91,2.42,16.73,16.73,0,0,0-2.34,6.63L228.6,71H212.37L216,50.21a22.83,22.83,0,0,0,.47-4,4.77,4.77,0,0,0-1-3.39,4.63,4.63,0,0,0-3.43-1.05,5.54,5.54,0,0,0-4.91,2.42,16.73,16.73,0,0,0-2.34,6.63L201.22,71H185Z"></path><path fill="#ef7e06" d="M282.65,55.36,294.2,30.17h15.6L290,68.31q-2.89,5.54-4.68,8.42a18,18,0,0,1-4.13,4.72,14.79,14.79,0,0,1-5.73,2.65,38.5,38.5,0,0,1-8.77.82q-2,0-5-.23-1.56-.08-2.18-.08l2-11.31q.78,0,1.72.08h1.64a8.77,8.77,0,0,0,4.52-.86,3.35,3.35,0,0,0,1.33-3,11.75,11.75,0,0,0-.23-2.11l-6.86-37.21h16.3Z"></path><path fill="#ef7e06" d="M333.82,71l.94-5.46a22.77,22.77,0,0,1-6.55,5.15A16.55,16.55,0,0,1,321,72.21q-7.49,0-11.39-4.33t-3.9-11.43a34.78,34.78,0,0,1,.39-5.07,35.45,35.45,0,0,1,3-9.13,27.31,27.31,0,0,1,4.91-7.1,21.29,21.29,0,0,1,6.36-4.56,16.72,16.72,0,0,1,7.06-1.6,16.47,16.47,0,0,1,6.63,1.17,10.81,10.81,0,0,1,4.6,4.13l3.43-19.42h16.22L348.4,71Zm-.51-13.26A14.43,14.43,0,0,0,336.24,51a15.21,15.21,0,0,0,.31-3,7.86,7.86,0,0,0-1.29-4.68A4.87,4.87,0,0,0,331,41.56a6.79,6.79,0,0,0-5.81,2.81,16,16,0,0,0-2.77,6.86,19.36,19.36,0,0,0-.31,3.28,7.36,7.36,0,0,0,1.17,4.37,4.46,4.46,0,0,0,3.9,1.64A7.46,7.46,0,0,0,333.31,57.78Z"></path><path fill="#ef7e06" d="M359.87,30.17h14.74l-1.4,8.27h.16a19,19,0,0,1,6-7.14,14.41,14.41,0,0,1,8.15-2.3,9.44,9.44,0,0,1,1.4.16l.7.08-2.89,16.22-1-.16A13.19,13.19,0,0,0,383.5,45q-5.15,0-8.07,2.73t-4,9.2L368.92,71H352.69Z"></path><path fill="#ef7e06" d="M384.59,71l7.18-40.87H408L400.82,71ZM394.73,13.4H411l-2,11.54H392.71Z"></path><path fill="#ef7e06" d="M410.18,30.17H426.4L429.05,56l11.62-25.82h15.6L435.29,71H417.2Z"></path><path fill="#ef7e06" d="M468,54.27a7.84,7.84,0,0,0-.16,1.56,6.12,6.12,0,0,0,1.91,4.68,6.83,6.83,0,0,0,4.88,1.79,8.28,8.28,0,0,0,3.74-.9,7.52,7.52,0,0,0,3-2.69h15.52A19.69,19.69,0,0,1,492.47,65a22.91,22.91,0,0,1-6.12,4.21,29.51,29.51,0,0,1-7.06,2.3,39.68,39.68,0,0,1-7.49.7q-9,0-14.43-4.41t-5.46-12.44A25.63,25.63,0,0,1,452.3,51a27.26,27.26,0,0,1,3.39-9,25.46,25.46,0,0,1,6.12-7A27.91,27.91,0,0,1,470,30.56a28.42,28.42,0,0,1,9.4-1.56q9.59,0,14.9,5.19t5.3,14a31.87,31.87,0,0,1-.62,6.08ZM484.2,46v-.55a3.42,3.42,0,0,0,.08-.55,5.86,5.86,0,0,0-1.72-4.25,5.76,5.76,0,0,0-4.29-1.76,9.07,9.07,0,0,0-5.93,1.91A8.17,8.17,0,0,0,469.46,46Z"></path><path fill="#ef7e06" d="M506.12,30.17h14.74l-1.4,8.27h.16a19,19,0,0,1,6-7.14,14.41,14.41,0,0,1,8.15-2.3,9.44,9.44,0,0,1,1.4.16l.7.08L533,45.46l-1-.16a13.19,13.19,0,0,0-2.26-.31q-5.15,0-8.07,2.73t-4,9.2L515.16,71H498.94Z"></path></g></g></svg>